<svg aria-hidden="true" style="position: absolute; width: 0; height: 0; overflow: hidden;" version="1.1" xmlns="http://www.w3.org/2000/svg" xmlns:xlink="http://www.w3.org/1999/xlink">
<defs>
<symbol id="icon-facebook" viewBox="0 0 32 32">
<path d="M22.667 4.667c0-0.177-0.070-0.346-0.195-0.471s-0.295-0.195-0.471-0.195h-3.333c-1.678-0.084-3.322 0.501-4.571 1.625s-2.003 2.697-2.096 4.375v3.6h-3.333c-0.177 0-0.346 0.070-0.471 0.195s-0.195 0.295-0.195 0.471v3.467c0 0.177 0.070 0.346 0.195 0.471s0.295 0.195 0.471 0.195h3.333v8.933c0 0.177 0.070 0.346 0.195 0.471s0.295 0.195 0.471 0.195h4c0.177 0 0.346-0.070 0.471-0.195s0.195-0.295 0.195-0.471v-8.933h3.493c0.148 0.002 0.293-0.045 0.411-0.135s0.204-0.216 0.242-0.359l0.96-3.467c0.026-0.098 0.030-0.202 0.010-0.302s-0.062-0.194-0.124-0.275c-0.062-0.081-0.142-0.147-0.233-0.193s-0.192-0.070-0.294-0.070h-4.467v-3.6c0.033-0.33 0.188-0.636 0.435-0.858s0.567-0.344 0.899-0.342h3.333c0.177 0 0.346-0.070 0.471-0.195s0.195-0.295 0.195-0.471v-3.467z"></path>
</symbol>
<symbol id="icon-instagram" viewBox="0 0 32 32">
<path d="M16 0c-4.347 0-4.889 0.020-6.596 0.096-1.704 0.080-2.864 0.348-3.884 0.744-1.052 0.408-1.945 0.956-2.835 1.845s-1.439 1.781-1.845 2.835c-0.396 1.020-0.665 2.18-0.744 3.884-0.080 1.707-0.096 2.249-0.096 6.596s0.020 4.889 0.096 6.596c0.080 1.703 0.348 2.864 0.744 3.884 0.408 1.051 0.956 1.945 1.845 2.835 0.889 0.888 1.781 1.439 2.835 1.845 1.021 0.395 2.181 0.665 3.884 0.744 1.707 0.080 2.249 0.096 6.596 0.096s4.889-0.020 6.596-0.096c1.703-0.080 2.864-0.349 3.884-0.744 1.051-0.408 1.945-0.957 2.835-1.845 0.888-0.889 1.439-1.78 1.845-2.835 0.395-1.020 0.665-2.181 0.744-3.884 0.080-1.707 0.096-2.249 0.096-6.596s-0.020-4.889-0.096-6.596c-0.080-1.703-0.349-2.865-0.744-3.884-0.408-1.052-0.957-1.945-1.845-2.835-0.889-0.889-1.78-1.439-2.835-1.845-1.020-0.396-2.181-0.665-3.884-0.744-1.707-0.080-2.249-0.096-6.596-0.096zM16 2.88c4.271 0 4.78 0.021 6.467 0.095 1.56 0.073 2.407 0.332 2.969 0.553 0.749 0.289 1.28 0.636 1.843 1.195 0.559 0.56 0.905 1.092 1.195 1.841 0.219 0.563 0.48 1.409 0.551 2.969 0.076 1.688 0.093 2.195 0.093 6.467s-0.020 4.78-0.099 6.467c-0.081 1.56-0.341 2.407-0.561 2.969-0.299 0.749-0.639 1.28-1.199 1.843-0.559 0.559-1.099 0.905-1.84 1.195-0.56 0.219-1.42 0.48-2.98 0.551-1.699 0.076-2.199 0.093-6.479 0.093-4.281 0-4.781-0.020-6.479-0.099-1.561-0.081-2.421-0.341-2.981-0.561-0.759-0.299-1.28-0.639-1.839-1.199-0.561-0.559-0.92-1.099-1.2-1.84-0.22-0.56-0.479-1.42-0.56-2.98-0.060-1.68-0.081-2.199-0.081-6.459 0-4.261 0.021-4.781 0.081-6.481 0.081-1.56 0.34-2.419 0.56-2.979 0.28-0.76 0.639-1.28 1.2-1.841 0.559-0.559 1.080-0.919 1.839-1.197 0.56-0.221 1.401-0.481 2.961-0.561 1.7-0.060 2.2-0.080 6.479-0.080l0.060 0.040zM16 7.784c-4.54 0-8.216 3.68-8.216 8.216 0 4.54 3.68 8.216 8.216 8.216 4.54 0 8.216-3.68 8.216-8.216 0-4.54-3.68-8.216-8.216-8.216zM16 21.333c-2.947 0-5.333-2.387-5.333-5.333s2.387-5.333 5.333-5.333c2.947 0 5.333 2.387 5.333 5.333s-2.387 5.333-5.333 5.333zM26.461 7.46c0 1.060-0.861 1.92-1.92 1.92-1.060 0-1.92-0.861-1.92-1.92s0.861-1.919 1.92-1.919c1.057-0.001 1.92 0.86 1.92 1.919z"></path>
</symbol>
<symbol id="icon-tel" viewBox="0 0 32 32">
<path d="M23.2 29.334c-5.444-0.007-10.662-2.173-14.512-6.022s-6.015-9.068-6.022-14.511c0-1.627 0.646-3.187 1.796-4.337s2.71-1.796 4.337-1.796c0.344-0.003 0.688 0.029 1.027 0.093 0.327 0.048 0.649 0.129 0.96 0.24 0.219 0.077 0.414 0.209 0.566 0.385s0.256 0.387 0.3 0.615l1.827 8c0.049 0.217 0.043 0.443-0.017 0.657s-0.174 0.41-0.329 0.569c-0.173 0.187-0.187 0.2-1.827 1.053 1.313 2.881 3.618 5.195 6.493 6.52 0.867-1.653 0.88-1.667 1.067-1.84 0.159-0.156 0.355-0.269 0.569-0.329s0.44-0.066 0.657-0.017l8 1.827c0.22 0.051 0.424 0.158 0.592 0.309s0.295 0.343 0.368 0.558c0.112 0.316 0.197 0.642 0.253 0.973 0.054 0.335 0.080 0.674 0.080 1.013-0.025 1.62-0.689 3.164-1.848 4.296s-2.719 1.759-4.339 1.744z"></path>
</symbol>
<symbol id="icon-arrow" viewBox="0 0 16 32">
<path d="M2.626 0.564c0.312-0.001 0.621 0.072 0.903 0.214s0.531 0.35 0.727 0.607l10.096 13.321c0.307 0.397 0.475 0.896 0.475 1.41s-0.168 1.013-0.475 1.41l-10.451 13.321c-0.355 0.453-0.865 0.739-1.417 0.793s-1.103-0.127-1.53-0.504c-0.427-0.377-0.695-0.918-0.746-1.505s0.12-1.172 0.475-1.625l9.343-11.9-9.030-11.9c-0.256-0.326-0.418-0.723-0.468-1.144s0.015-0.848 0.186-1.231c0.171-0.383 0.443-0.706 0.782-0.93s0.731-0.341 1.13-0.336z"></path>
</symbol>
</defs>
</svg>
